<?xml version="1.0" encoding="utf-8"?>
<!-- Generator: Adobe Illustrator 27.1.1, SVG Export Plug-In . SVG Version: 6.00 Build 0)  -->
<svg version="1.1" id="Layer_1" xmlns="http://www.w3.org/2000/svg" xmlns:xlink="http://www.w3.org/1999/xlink" x="0px" y="0px"
	 viewBox="0 0 20 20.6" style="enable-background:new 0 0 20 20.6;" xml:space="preserve" width="20" height="20">
<style type="text/css">
	.st0{fill:#FFFFFF;}
</style>
<path class="st0" d="M19.1,12.9L17.3,2.7c-0.1-0.7-0.6-1.2-1.3-1.3c-0.7-0.1-1.3,0.1-1.7,0.7l-4.3,6.5C10,8.9,9.7,9,9.4,8.9L6.9,7.6
	c-0.3-0.1-0.6,0-0.7,0.2c-0.1,0.3,0,0.6,0.2,0.7l2.5,1.3C9.2,9.9,9.4,10,9.7,10c0.5,0,1.1-0.3,1.4-0.7l4.3-6.5
	c0.2-0.3,0.5-0.3,0.6-0.2c0.1,0,0.4,0.1,0.4,0.4l1.8,10.2c0,0.2-0.1,0.4-0.1,0.4c-0.1,0.1-0.2,0.2-0.4,0.2H7.1
	c-0.3,0-0.5,0.2-0.5,0.5c0,0.3,0.2,0.5,0.5,0.5h1.4l-1,2.7c-0.1,0.2-0.3,0.4-0.5,0.4H6.5c-0.3,0-0.5-0.2-0.5-0.4L4.1,6.8l8.4-4
	c0.3-0.1,0.4-0.4,0.3-0.7c-0.1-0.3-0.4-0.4-0.7-0.3L1.7,6.8c-0.7,0.3-1,1-0.9,1.7l0.9,5c0.1,0.8,0.8,1.3,1.6,1.3h1.2l0.5,2.8
	C5.1,18.4,5.8,19,6.5,19H7c0.7,0,1.3-0.4,1.5-1.1l1.1-3.1h7.9c0.5,0,0.9-0.2,1.2-0.6C19.1,13.9,19.2,13.4,19.1,12.9z M3.2,13.8
	c-0.3,0-0.5-0.2-0.5-0.4l-0.9-5c0-0.2,0.1-0.5,0.3-0.6l1-0.5l1.1,6.5H3.2z"/>
</svg>
